<svg width="13" height="14" viewBox="0 0 13 14" fill="none" xmlns="http://www.w3.org/2000/svg">
<path d="M12 2.66667C12 8.3736 7.75913 13 2.52778 13C2.29175 13 2.05775 12.9906 1.82605 12.9721C1.56016 12.9508 1.4272 12.9402 1.30618 12.8642C1.20595 12.8013 1.11089 12.6897 1.06065 12.576C1 12.4388 1 12.2787 1 11.9587V10.0805C1 9.81127 1 9.67667 1.04061 9.56133C1.07648 9.4594 1.13474 9.36867 1.21028 9.29707C1.2958 9.216 1.41174 9.17 1.64363 9.078L3.60336 8.3006C3.87316 8.1936 4.00805 8.14007 4.13604 8.14913C4.24889 8.15713 4.35749 8.1992 4.44976 8.27053C4.55439 8.3514 4.62825 8.48567 4.77595 8.75427L5.27778 9.66667C6.89716 8.8666 8.20995 7.4326 8.94444 5.66667L8.10808 5.11921C7.86186 4.95809 7.73878 4.87752 7.66466 4.76337C7.59927 4.66272 7.56071 4.54425 7.55337 4.42113C7.54506 4.28151 7.59413 4.13435 7.69222 3.84003L8.40483 1.70214C8.48917 1.44917 8.53133 1.32269 8.60564 1.2294C8.67128 1.14699 8.75445 1.08343 8.84789 1.0443C8.95361 1 9.077 1 9.32376 1H11.0454C11.3388 1 11.4856 1 11.6113 1.06617C11.7155 1.12097 11.8178 1.22467 11.8755 1.33402C11.9452 1.46605 11.9549 1.61108 11.9744 1.90115C11.9914 2.15391 12 2.40919 12 2.66667Z" stroke="#FF287A" stroke-linecap="round" stroke-linejoin="round"/>
</svg>
