<svg width="10" height="17" viewBox="0 0 10 17" fill="none" xmlns="http://www.w3.org/2000/svg">
<path d="M8.85689 10.1174L8.85687 10.1175L2.05316 16.0491C1.69778 16.3586 1.09661 16.3586 0.741197 16.0491C0.426272 15.7748 0.426346 15.3627 0.741149 15.0885L0.741168 15.0885L6.56302 10.0178C6.56304 10.0178 6.56306 10.0178 6.56308 10.0178C7.33566 9.34505 7.33566 8.22179 6.56307 7.54903C6.56306 7.54902 6.56304 7.549 6.56302 7.54899L0.736139 2.47404L0.736138 2.47404C0.421287 2.19982 0.421287 1.78764 0.736138 1.51342C1.09157 1.20386 1.69275 1.20387 2.04814 1.51341L2.04815 1.51342L8.8562 7.44285C8.85621 7.44285 8.85622 7.44286 8.85623 7.44287C9.71436 8.19038 9.7146 9.36975 8.85689 10.1174Z" fill="#FF287A" stroke="#FF287A"/>
</svg>
