 <svg width="10" height="17" viewBox="0 0 10 17" fill="none" xmlns="http://www.w3.org/2000/svg">
<path d="M1.14311 7.44505L1.14313 7.44504L7.94684 1.5134C8.30222 1.20388 8.90339 1.20386 9.2588 1.51337C9.57373 1.7877 9.57365 2.19982 9.25885 2.47398L9.25883 2.474L3.43698 7.54465C3.43696 7.54467 3.43694 7.54468 3.43692 7.5447C2.66434 8.21745 2.66435 9.34071 3.43693 10.0135C3.43694 10.0135 3.43696 10.0135 3.43698 10.0135L9.26386 15.0885L9.26386 15.0885C9.57871 15.3627 9.57871 15.7749 9.26386 16.0491C8.90843 16.3586 8.30725 16.3586 7.95186 16.0491L7.95185 16.0491L1.1438 10.1197C1.14379 10.1196 1.14378 10.1196 1.14378 10.1196C0.285644 9.37212 0.285397 8.19275 1.14311 7.44505Z" fill="#FF287A" stroke="#FF287A"/>
</svg>
