<svg width="288" height="250" viewBox="0 0 288 250" fill="none" xmlns="http://www.w3.org/2000/svg">
<path d="M30.6033 248.089C-3.96184 218.255 -3.99972 152.629 5.15186 130.988C20.6326 94.3791 28.8818 101.412 42.4339 79.8966C52.9122 63.2607 43.1311 36.8382 75.1098 15.7602C113.078 -9.26575 134.706 -0.0524737 160.385 13.0012C179.364 22.6487 193.069 21.9404 203.441 18.2661C220.749 12.1342 246.114 22.5772 268.309 68.437C285.024 102.973 296.614 145.047 279.743 207.559C275.211 224.351 258.741 248.724 258.741 248.724L30.6033 248.089Z" fill="#FFF1F6"/>
<path d="M180.441 247.464C181.777 246.297 192.195 229.96 199.407 238.362C199.407 238.362 214.266 211.308 229.191 215.946C229.191 215.946 239.523 221.736 232.611 233.727C232.611 233.727 251.761 234.832 251.461 247.464H180.441Z" fill="#F5A5C7"/>
<path d="M214.911 223.787C214.865 223.787 214.819 223.769 214.789 223.735C214.736 223.676 214.747 223.591 214.815 223.545C214.969 223.439 218.627 220.946 221.971 220.596C222.056 220.587 222.133 220.64 222.143 220.714C222.153 220.788 222.093 220.856 222.008 220.865C218.751 221.206 215.043 223.732 215.006 223.758C214.978 223.777 214.944 223.787 214.911 223.787Z" fill="#F5A5C7"/>
<path d="M214.911 225.358C214.865 225.358 214.821 225.341 214.79 225.308C214.736 225.249 214.746 225.164 214.813 225.117C214.838 225.099 217.345 223.34 220.543 222.525C220.625 222.504 220.712 222.545 220.736 222.617C220.76 222.689 220.712 222.764 220.63 222.785C217.494 223.585 215.033 225.31 215.008 225.328C214.979 225.348 214.945 225.358 214.911 225.358Z" fill="#F5A5C7"/>
<path d="M125.539 248.129C124.778 247.52 112.352 216.347 104.133 227.762C104.133 227.762 93.4236 199.321 76.5294 201.299C59.6352 203.278 72.3361 228.151 72.3361 228.151C72.3361 228.151 57.8772 222.216 61.2255 237.892C61.2255 237.892 42.8094 234.544 44.1792 247.785L125.539 248.129Z" fill="#F5A5C7"/>
<path d="M73.0064 231.21C73.0496 231.201 73.0894 231.175 73.1159 231.136C73.1702 231.054 73.1484 230.945 73.0671 230.89C72.9194 230.792 69.4151 228.481 66.3393 229.148L66.3375 229.148C66.2422 229.169 66.1816 229.263 66.2023 229.359C66.223 229.454 66.3172 229.515 66.4125 229.494L66.4142 229.494C69.3422 228.858 72.8358 231.161 72.8706 231.184C72.9121 231.212 72.9611 231.22 73.0064 231.21Z" fill="#F5A5C7"/>
<path d="M70.6509 231.476C70.6945 231.466 70.7342 231.44 70.7609 231.4C70.8147 231.319 70.7925 231.209 70.711 231.155C70.6435 231.111 69.0249 230.063 66.1511 230.242C66.0529 230.248 65.9796 230.332 65.9857 230.429C65.9919 230.527 66.0757 230.601 66.173 230.595C68.9298 230.423 70.5005 231.44 70.516 231.45C70.5573 231.478 70.6059 231.485 70.6509 231.476Z" fill="#F5A5C7"/>
<path d="M4.35968 249.197L279.743 249.197V247.401L4.35968 247.401V249.197Z" fill="#FFF1F6"/>
<path d="M88.9014 214.588C91.2053 215.787 93.5598 216.902 95.968 217.921C108.001 223.011 120.782 225.591 133.953 225.591C147.125 225.591 159.905 223.011 171.939 217.921C183.56 213.006 193.995 205.97 202.956 197.01C211.916 188.049 218.952 177.614 223.867 165.993C228.957 153.959 231.537 141.179 231.537 128.008C231.537 114.836 228.957 102.056 223.867 90.0224C218.952 78.4016 211.916 67.966 202.956 59.0054C195.505 51.5548 187.031 45.4402 177.708 40.7637C177.708 40.7637 173.836 48.4976 173.867 48.5135L88.9014 214.588ZM133.953 216.971C120.68 216.971 108.078 214.046 96.7535 208.811L177.623 50.5219C204.64 65.8081 222.917 94.8125 222.917 128.008C222.917 177.062 183.008 216.971 133.953 216.971Z" fill="#F5A5C7"/>
<path d="M133.953 225.946C134.149 225.946 134.308 225.787 134.308 225.591C134.308 225.395 134.149 225.236 133.953 225.236C120.829 225.236 108.096 222.665 96.1064 217.594C93.7654 216.604 91.3964 215.486 89.0652 214.273C88.8909 214.182 88.6769 214.25 88.5865 214.424C88.4961 214.598 88.5636 214.812 88.7375 214.903C91.0852 216.125 93.4714 217.25 95.8298 218.247C107.907 223.356 120.734 225.946 133.953 225.946Z" fill="#F5A5C7"/>
<path d="M151.333 224.408C151.354 224.409 151.375 224.407 151.396 224.403C158.464 223.133 165.422 221.062 172.077 218.247C183.74 213.314 194.214 206.253 203.207 197.26C212.2 188.268 219.261 177.794 224.194 166.131C229.302 154.054 231.892 141.227 231.892 128.007C231.892 114.788 229.302 101.961 224.194 89.8837C219.261 78.2206 212.2 67.747 203.207 58.7541C195.754 51.3012 187.228 45.1417 177.867 40.4459L177.55 40.2871L177.391 40.6032C177.391 40.6032 175.875 43.6069 174.364 46.6127C173.608 48.1157 172.853 49.6192 172.289 50.7479C172.007 51.3129 171.772 51.7841 171.609 52.1145C171.285 52.7719 171.198 52.9487 171.518 53.1098C171.692 53.1977 171.906 53.1276 171.994 52.9525C172.002 52.9376 172.008 52.9223 172.013 52.907C172.217 52.4465 176.154 44.6315 177.865 41.2395C187.034 45.8807 195.39 51.9409 202.705 59.2558C211.633 68.1839 218.643 78.5816 223.54 90.16C228.611 102.149 231.183 114.883 231.183 128.007C231.183 141.131 228.611 153.865 223.54 165.854C218.643 177.433 211.633 187.83 202.705 196.758C193.777 205.686 183.379 212.696 171.801 217.594C165.194 220.388 158.287 222.444 151.271 223.704C151.078 223.739 150.949 223.923 150.984 224.116C151.015 224.288 151.165 224.408 151.333 224.408Z" fill="#F5A5C7"/>
<path d="M148.624 244.439H160.286V218.205H148.624V244.439Z" fill="#F5A5C7"/>
<path d="M114.976 237.96H185.766C191.05 237.96 195.333 242.243 195.333 247.527H105.41C105.41 242.244 109.693 237.96 114.976 237.96Z" fill="#F5A5C7"/>
<path d="M159.931 238.316H185.081C185.277 238.316 185.436 238.157 185.436 237.961C185.436 237.765 185.277 237.606 185.081 237.606H160.641V222C160.641 221.804 160.482 221.646 160.286 221.646C160.09 221.646 159.931 221.804 159.931 222L159.931 238.316Z" fill="#F5A5C7"/>
<path d="M133.953 212.151C180.425 212.151 218.098 174.479 218.098 128.007C218.098 81.5355 180.425 43.8628 133.953 43.8628C87.4818 43.8628 49.8091 81.5355 49.8091 128.007C49.8091 174.479 87.4818 212.151 133.953 212.151Z" fill="#FFF1F6"/>
<path d="M126.451 44.1802C123.194 46.2774 118.38 46.8719 114.711 48.0448C111.99 48.9146 94.6789 53.4653 103.111 56.1341C100.576 55.3319 94.8693 68.0938 92.5422 69.6379C88.3044 72.45 86.9457 70.995 84.9557 76.8024C84.3713 78.5079 85.5162 84.5834 86.1054 83.4626C84.7654 86.0114 79.6708 85.5706 79.636 89.1586C82.0972 93.0814 83.2218 89.6033 81.6217 94.8272C80.0306 100.021 72.9144 101.098 73.7678 94.4427C74.0939 91.8995 77.7333 84.1371 72.07 84.0949C68.8571 84.0709 65.9116 84.5122 68.8473 80.3329C71.526 76.5196 70.8889 76.507 70.4142 72.8245C74.7049 67.8746 79.5753 63.4299 84.8997 59.6133C97.0589 50.8976 111.553 45.5265 126.451 44.1802C126.11 44.3994 120.116 44.7526 126.451 44.1802Z" fill="#F5A5C7"/>
<path d="M49.7996 126.518C49.8067 126.121 49.8167 125.724 49.8295 125.327C49.8299 125.312 49.8306 125.298 49.831 125.283C49.8432 124.909 49.858 124.535 49.8754 124.161C49.8771 124.122 49.8793 124.082 49.8812 124.043C49.8986 123.679 49.918 123.315 49.9403 122.951C49.9414 122.932 49.9426 122.914 49.9437 122.895C50.6307 111.744 53.5654 100.759 58.5139 90.7389C58.5193 90.728 58.5246 90.7169 58.5302 90.706C58.7046 90.3533 58.8813 90.0017 59.0607 89.6514C63.1657 93.6065 68.8459 93.0649 71.9896 97.1856C77.5932 104.531 74.4757 110.525 78.2675 118.836C80.9652 124.749 76.1279 135.728 72.6529 140.365C66.6608 148.361 59.1999 135.901 58.6463 136.489C55.1804 140.172 54.3607 136.184 54.7803 144.283C54.8294 145.229 55.6339 156.41 56.3812 159.777C56.4235 159.967 56.3439 160.126 56.2174 160.22C55.4474 158.357 54.7371 156.454 54.0921 154.51C53.4168 152.475 52.824 150.433 52.311 148.387C50.7566 139.361 49.7663 128.398 49.7996 126.518Z" fill="#F5A5C7"/>
<path d="M98.4571 168.45C98.4012 163.25 117.595 162.477 121.041 156.648C125.127 149.737 136.393 148.891 142.223 146.27C146.238 144.465 150.852 140.886 154.781 143.953C158.061 146.515 164.264 146.721 166.254 141.799C165.503 139.292 165.441 136.751 166.066 134.178C168.056 133.668 170.076 133.338 172.125 133.188C171.709 131.343 171.003 129.616 170.007 128.007C171.887 124.521 177.001 132.612 179.354 126.459C180.601 123.2 179.979 113.902 175.932 112.392C173.97 111.659 166.606 111.953 164.773 112.995C160.291 115.543 162.782 119.357 159.531 121.672C163.833 118.608 147.979 102.477 146.016 101.521C140.978 99.0672 130.073 98.4172 126.872 93.4007C123.336 87.8587 131.867 81.1989 134.365 77.175C135.089 77.9988 135.895 78.7346 136.781 79.3821C138.69 79.4605 138.889 74.2749 141.03 73.8565C145.512 72.9806 143.718 79.7994 144.294 80.5408C147.687 84.905 163.058 75.1089 150.735 71.425C149.664 71.105 126.813 75.8082 131.006 69.9569C131.909 68.6969 138.683 64.1676 137.012 62.1723C133.753 58.2777 130.792 61.0313 128.937 64.4586C127.75 66.6517 117.404 86.4863 118.241 72.2534C118.423 69.1558 113.416 68.1387 113.012 65.1471C112.712 62.9189 118.747 57.4861 119.782 56.1941C121.957 53.4781 137.904 55.2975 140.486 55.324C146.703 55.388 149.795 56.6222 155.563 57.6149C161.759 58.6811 157.116 54.6022 158.948 52.3172C159.62 51.4789 166.329 53.0703 166.639 53.1795C173.192 55.4883 172.545 55.3272 171.671 59.4484C171.223 61.5565 179.033 68.8395 179.875 70.7721C183.597 79.3144 191.087 84.287 191.842 94.0907C192.371 100.966 194.786 105.578 190.296 111.501C185.286 118.107 192.484 125.371 182.882 130.41C175.493 134.288 154.227 147.463 161.953 155.936C167.701 162.241 162.281 167.975 159.251 174.153C154.158 184.538 147.057 180.462 151.194 194.576C158.396 219.149 132.22 200.166 132.171 200.544C132.371 198.987 115.449 188.689 111.27 187.076C107.246 185.524 98.4576 168.489 98.4571 168.45C98.4843 170.986 98.4311 166.025 98.4571 168.45Z" fill="#F5A5C7"/>
<path d="M133.922 212.527C142.917 212.527 151.905 211.084 160.57 208.208C176.642 202.874 190.576 192.992 200.866 179.629C200.987 179.472 200.958 179.247 200.801 179.126C200.644 179.005 200.419 179.035 200.298 179.191C190.096 192.441 176.28 202.239 160.345 207.527C145.184 212.559 129.02 213.17 113.601 209.294C113.41 209.245 113.215 209.362 113.167 209.554C113.118 209.746 113.235 209.941 113.427 209.989C120.165 211.683 127.046 212.527 133.922 212.527Z" fill="#F5A5C7"/>
<path d="M54.0926 154.868C54.13 154.868 54.1681 154.862 54.2056 154.85C54.3934 154.787 54.4952 154.585 54.4329 154.397C39.881 110.548 63.7153 63.0365 107.564 48.4846C151.411 33.9328 198.924 57.767 213.475 101.615C213.538 101.803 213.741 101.904 213.928 101.843C214.116 101.78 214.218 101.577 214.156 101.39C210.562 90.5626 204.956 80.7631 197.492 72.263C190.283 64.0533 181.654 57.3954 171.845 52.4742C162.035 47.553 151.539 44.6169 140.648 43.7469C129.371 42.8462 118.165 44.2111 107.338 47.8043C96.5108 51.3974 86.7114 57.0038 78.2113 64.4674C70.0016 71.6764 63.3436 80.3056 58.4225 90.1155C53.5013 99.9253 50.5651 110.421 49.6951 121.312C48.7944 132.588 50.1594 143.795 53.7525 154.622C53.8026 154.773 53.9425 154.868 54.0926 154.868Z" fill="#F5A5C7"/>
</svg>
