<svg width="114" height="90" viewBox="0 0 114 90" fill="none" xmlns="http://www.w3.org/2000/svg">
<path d="M104 25.1372C104 19.0009 101.603 13.1158 97.3367 8.77674C93.0702 4.43766 87.2837 2 81.25 2C75.2163 2 69.4298 4.43766 65.1633 8.77674C60.8969 13.1158 58.5 19.0009 58.5 25.1372C58.4994 21.9067 57.8335 18.7121 56.5454 15.7591C55.2572 12.8061 53.3753 10.1602 51.0208 7.99168C48.6663 5.8232 45.8913 4.18021 42.8746 3.16849C39.8579 2.15678 36.6664 1.79877 33.5054 2.11751C30.3444 2.43625 27.2841 3.42467 24.5215 5.01915C21.7588 6.61363 19.3552 8.77881 17.4652 11.3753C15.5752 13.9718 14.2408 16.942 13.5479 20.0948C12.855 23.2475 12.8189 26.5129 13.442 29.6807C14.0267 48.5524 58.5 89 58.5 89C58.5 89 102.974 48.5524 103.559 29.6807C103.851 28.1845 103.999 26.6627 104 25.1372Z" stroke="black" stroke-linecap="round" stroke-linejoin="round"/>
<path d="M82 40H112" stroke="black" stroke-linecap="round" stroke-linejoin="round"/>
<path d="M81 39.9564L75.8131 46.1383L70.1859 28L61.6621 53L53.9365 34.5222L49.4085 47.0214L38.487 29.9024L35.216 40.5H1" stroke="black" stroke-linecap="round" stroke-linejoin="round"/>
</svg>
